# xmcd CD database file
#
# Track frame offsets:
#	150
#	14513
#	27748
#	47938
#	56991
#	73666
#	90069
#	108316
#	121100
#	138007
#	152496
#	166746
#
# Disc length: 2338 seconds
#
# Revision: 0
# Processed by: cddbd v1.5.2PL0 Copyright (c) Steve Scherf et al.
# Submitted via: CDex 1.81
#
DISCID=9509200c
DTITLE=Zuraw, Roger [CDN-05-It's Blues To Me-bls) - It's Blues To Me
DYEAR=2006
DGENRE=Blues
TTITLE0=Going To Toronto
TTITLE1=I Want Her
TTITLE2=Mean Spirited Woman Blues
TTITLE3=Fine Winter Blues
TTITLE4=Pickled Herring Ain't No Sledzie To Me AKA Zbysui's Blues
TTITLE5=Pierogi Mama Blues AKA Misui's Blues
TTITLE6=Cabbage Roll Blues AKA Tadziu's Theme
TTITLE7=Young Woman Blues
TTITLE8=B&E Blues
TTITLE9=Misunderstood Blues
TTITLE10=Waiting For You Blues
TTITLE11=Headboard Boogie
EXTD=YEAR: 2006
EXTT0=
EXTT1=
EXTT2=
EXTT3=
EXTT4=
EXTT5=
EXTT6=
EXTT7=
EXTT8=
EXTT9=
EXTT10=
EXTT11=
PLAYORDER=
